<?xml version="1.0" encoding="UTF-8" standalone="no"?>
<!-- Created with Inkscape (http://www.inkscape.org/) -->

<svg
   width="14.828648mm"
   height="14.82865mm"
   viewBox="0 0 14.828648 14.82865"
   version="1.1"
   id="svg1"
   xml:space="preserve"
   xmlns="http://www.w3.org/2000/svg"
   xmlns:svg="http://www.w3.org/2000/svg"><defs
     id="defs1"><linearGradient
       id="swatch56"><stop
         style="stop-color:#a1a1a1;stop-opacity:1;"
         offset="0"
         id="stop56" /></linearGradient></defs><g
     id="layer1"
     transform="translate(-14.135752,-35.198116)"><path
       id="rect5"
       style="fill:#ffffff;stroke:#000000;stroke-width:0.462655"
       d="m 15.676247,35.429443 h 11.74766 c 0.725278,0 1.309167,0.583889 1.309167,1.309167 v 11.74766 c 0,0.725278 -0.583889,1.309167 -1.309167,1.309167 h -11.74766 c -0.725278,0 -1.309167,-0.583889 -1.309167,-1.309167 V 36.73861 c 0,-0.725278 0.583889,-1.309167 1.309167,-1.309167 z" /><path
       style="font-size:25.5345px;font-family:'EB Garamond';-inkscape-font-specification:'EB Garamond';stroke:#000000;stroke-width:0.258733;stroke-dasharray:none;stroke-opacity:1"
       d="m 21.31191,46.153292 q -0.09073,0 -0.124756,-0.07454 -0.04537,-0.117141 -0.113415,-0.308826 -0.06805,-0.202335 -0.124755,-0.340774 l -2.075481,-5.22876 Q 18.76009,39.902215 18.567285,39.69988 18.374481,39.497545 18.079604,39.423001 17.89814,39.36975 17.796069,39.316509 q -0.09073,-0.05325 -0.09073,-0.12779 0,-0.06389 0.09073,-0.08519 0.09073,-0.03195 0.238169,-0.03195 0.181463,0 0.39695,0.01065 0.226829,0.01065 0.476339,0.0213 0.249512,0 0.510365,0 0.226828,0 0.442315,0 0.226829,-0.01065 0.408291,-0.01065 0.192804,-0.01065 0.306219,-0.01065 0.147439,0 0.23817,0.03195 0.09073,0.0213 0.09073,0.08519 0,0.07454 -0.09073,0.138439 -0.09073,0.05325 -0.283536,0.07454 -0.317559,0.03194 -0.533047,0.13844 -0.204145,0.09584 -0.204145,0.276878 0,0.181037 0.04537,0.319476 0.05671,0.127792 0.07939,0.202337 l 1.633165,4.046693 q 0.02268,0.0426 0.05671,0.05325 0.03402,0.01065 0.06805,-0.06389 l 1.553776,-3.83371 q 0.226827,-0.564407 0.02268,-0.819988 -0.192804,-0.266229 -0.555729,-0.308828 -0.170122,-0.0213 -0.272194,-0.07454 -0.102073,-0.06389 -0.102073,-0.138439 0,-0.06389 0.09073,-0.08519 0.09073,-0.03194 0.238171,-0.03194 0.147437,0 0.328901,0 0.181461,0 0.374267,0.01064 0.204145,0 0.419632,0 0.328902,0 0.703169,-0.01064 0.374266,-0.0213 0.589754,-0.0213 0.147437,0 0.238169,0.03194 0.09073,0.0213 0.09073,0.08519 0,0.07454 -0.09073,0.127791 -0.09073,0.0426 -0.283535,0.08519 -0.419633,0.08519 -0.703169,0.362073 -0.283535,0.276878 -0.408292,0.564406 l -2.13219,4.856033 q -0.02268,0.05325 -0.09073,0.223633 -0.05671,0.159738 -0.124755,0.351423 -0.06805,0.191686 -0.136097,0.319476 -0.01134,0.03195 -0.04537,0.05325 -0.03402,0.02131 -0.06805,0.02131 z"
       id="text2"
       aria-label="V" /></g></svg>
