<?xml version="1.0" encoding="UTF-8" standalone="no"?>
<!-- Created with Inkscape (http://www.inkscape.org/) -->

<svg
   width="24.197754mm"
   height="24.197758mm"
   viewBox="0 0 24.197754 24.197758"
   version="1.1"
   id="svg1"
   xml:space="preserve"
   xmlns="http://www.w3.org/2000/svg"
   xmlns:svg="http://www.w3.org/2000/svg"><defs
     id="defs1"><linearGradient
       id="swatch56"><stop
         style="stop-color:#a1a1a1;stop-opacity:1;"
         offset="0"
         id="stop56" /></linearGradient></defs><g
     id="layer1"
     transform="translate(-9.4827518,-30.433342)"><rect
       style="fill:#ffffff;fill-opacity:1;stroke:#565656;stroke-width:0.723;stroke-dasharray:none;stroke-opacity:1"
       id="rect2"
       width="23.474754"
       height="23.474754"
       x="9.8442526"
       y="30.794842" /><path
       style="font-size:25.5345px;font-family:'EB Garamond';-inkscape-font-specification:'EB Garamond';stroke-width:1.92652"
       d="m 20.981868,51.291207 q -0.228485,0 -0.314167,-0.184399 -0.11424,-0.289772 -0.285605,-0.763942 -0.171363,-0.500513 -0.314165,-0.84297 L 14.841362,36.565571 q -0.285604,-0.737599 -0.771133,-1.238113 -0.485528,-0.500513 -1.228102,-0.684913 -0.456967,-0.131713 -0.71401,-0.263428 -0.228484,-0.131714 -0.228484,-0.316113 0,-0.158058 0.228484,-0.210744 0.228484,-0.07903 0.599769,-0.07903 0.456967,0 0.999617,0.02634 0.571209,0.02634 1.19954,0.05269 0.628331,0 1.285222,0 0.57121,0 1.113859,0 0.571211,-0.02634 1.028178,-0.02634 0.485527,-0.02634 0.771132,-0.02634 0.371288,0 0.599771,0.07903 0.228484,0.05269 0.228484,0.210743 0,0.184399 -0.228484,0.342456 -0.228483,0.131715 -0.714013,0.184401 -0.799693,0.07902 -1.342342,0.342456 -0.514088,0.237086 -0.514088,0.684913 0,0.447829 0.114239,0.790285 0.142803,0.316114 0.199923,0.500514 l 4.11271,10.010271 q 0.05711,0.105371 0.142803,0.131714 0.08568,0.02634 0.171363,-0.158057 l 3.912786,-9.483415 q 0.571208,-1.396169 0.05711,-2.028396 -0.485529,-0.658571 -1.399464,-0.763944 -0.428409,-0.05269 -0.685451,-0.184398 -0.257045,-0.158057 -0.257045,-0.342457 0,-0.158057 0.228484,-0.210743 0.228484,-0.07903 0.599771,-0.07903 0.371285,0 0.828252,0 0.456968,0 0.942497,0.02634 0.51409,0 1.056738,0 0.828254,0 1.77075,-0.02634 0.942496,-0.05269 1.485146,-0.05269 0.371286,0 0.59977,0.07902 0.228483,0.05269 0.228483,0.210744 0,0.184399 -0.228483,0.316113 -0.228484,0.105371 -0.714012,0.210743 -1.056738,0.210743 -1.77075,0.895656 -0.714013,0.684912 -1.028179,1.396169 l -5.369367,12.012326 q -0.05711,0.131714 -0.228483,0.5532 -0.142803,0.395142 -0.314165,0.869312 -0.171364,0.474171 -0.342725,0.790285 -0.02856,0.07903 -0.11424,0.131714 -0.08568,0.05269 -0.171361,0.05269 z"
       id="text2"
       aria-label="V" /></g></svg>
