<?xml version="1.0" encoding="UTF-8" standalone="no"?>
<!-- Created with Inkscape (http://www.inkscape.org/) -->

<svg
   width="15.645056mm"
   height="15.644363mm"
   viewBox="0 0 15.645056 15.644363"
   version="1.1"
   id="svg1"
   xml:space="preserve"
   xmlns="http://www.w3.org/2000/svg"
   xmlns:svg="http://www.w3.org/2000/svg"><defs
     id="defs1"><linearGradient
       id="swatch56"><stop
         style="stop-color:#a1a1a1;stop-opacity:1;"
         offset="0"
         id="stop56" /></linearGradient></defs><g
     id="layer1"
     transform="translate(-89.301231,-42.028261)"><g
       id="g39"
       transform="translate(0.1935732,0.061326)"><g
         id="g46"
         transform="translate(10.601502,-0.69414598)"><path
           id="rect5-37-4-5-9"
           style="fill:#ffffff;fill-opacity:1;stroke:#9c9c9c;stroke-width:1.263;stroke-dasharray:none;stroke-opacity:1"
           d="M 80.462889,43.307946 H 92.21055 c 0.725278,0 1.309167,0.583889 1.309167,1.309167 v 11.747659 c 0,0.725278 -0.583889,1.309167 -1.309167,1.309167 H 80.462889 c -0.725278,0 -1.309167,-0.583889 -1.309167,-1.309167 V 44.617113 c 0,-0.725278 0.583889,-1.309167 1.309167,-1.309167 z" /><path
           id="rect5-37-4-6"
           style="fill:#ffffff;fill-opacity:1;stroke:none;stroke-width:0.462655"
           d="m 79.815328,42.661077 h 11.74766 c 0.725278,0 1.309167,0.583889 1.309167,1.309168 v 11.747659 c 0,0.725278 -0.583889,1.309167 -1.309167,1.309167 h -11.74766 c -0.725278,0 -1.309167,-0.583889 -1.309167,-1.309167 V 43.970245 c 0,-0.725279 0.583889,-1.309168 1.309167,-1.309168 z" /><path
           style="font-size:25.5345px;font-family:'EB Garamond';-inkscape-font-specification:'EB Garamond';stroke:#000000;stroke-width:0.295425;stroke-dasharray:none;stroke-opacity:1"
           d="m 85.499868,54.031768 q -0.108165,0 -0.148733,-0.08152 -0.05409,-0.128102 -0.135213,-0.337725 -0.08112,-0.221268 -0.14873,-0.372661 l -2.474359,-5.718024 q -0.135209,-0.326079 -0.365069,-0.547347 -0.229858,-0.221268 -0.581405,-0.302788 -0.216338,-0.05823 -0.338025,-0.116456 -0.108164,-0.05823 -0.108164,-0.139747 0,-0.06988 0.108164,-0.09316 0.108164,-0.03493 0.283941,-0.03493 0.216337,0 0.473239,0.01165 0.27042,0.01165 0.567883,0.0233 0.297466,0 0.608449,0 0.270422,0 0.527323,0 0.270422,-0.01164 0.486758,-0.01164 0.229858,-0.01165 0.36507,-0.01165 0.175775,0 0.283943,0.03493 0.108164,0.0233 0.108164,0.09316 0,0.08151 -0.108164,0.151393 -0.108165,0.05823 -0.338028,0.08151 -0.378589,0.03492 -0.63549,0.151395 -0.243381,0.104808 -0.243381,0.302786 0,0.197977 0.05409,0.34937 0.0676,0.13975 0.09465,0.221271 l 1.947036,4.425353 q 0.02703,0.04659 0.0676,0.05823 0.04056,0.01164 0.08112,-0.06987 l 1.852403,-4.192441 q 0.270421,-0.617219 0.02704,-0.896716 -0.229858,-0.291141 -0.662533,-0.337726 -0.202817,-0.02329 -0.324505,-0.08151 -0.121691,-0.06987 -0.121691,-0.151392 0,-0.06987 0.108164,-0.09316 0.108165,-0.03492 0.283945,-0.03492 0.175772,0 0.392111,0 0.216335,0 0.446196,0.01163 0.243377,0 0.500279,0 0.392112,0 0.838307,-0.01163 0.446196,-0.0233 0.703097,-0.0233 0.175772,0 0.283941,0.03492 0.108164,0.02329 0.108164,0.09316 0,0.08151 -0.108164,0.139748 -0.108164,0.04659 -0.338025,0.09316 -0.500281,0.09316 -0.838309,0.395952 -0.338026,0.302786 -0.486759,0.617219 l -2.541966,5.310423 q -0.02703,0.05823 -0.108165,0.24456 -0.0676,0.174684 -0.148731,0.384306 -0.08112,0.209622 -0.162253,0.34937 -0.01352,0.03493 -0.05409,0.05823 -0.04056,0.02331 -0.08112,0.02331 z"
           id="text2-48-3-0"
           aria-label="V" /></g></g></g></svg>
